ply
format ascii 1.0
comment VCGLIB generated
comment TextureFile dummy.png
element vertex 270
property float x
property float y
property float z
property float nx
property float ny
property float nz
property uchar red
property uchar green
property uchar blue
property uchar alpha
property float texture_u
property float texture_v
element face 436
property list uchar int vertex_indices
end_header
-1.70898 -0.9497535 -0.0726577 -0.001488795 -0.9998421 0.01770811 204 204 204 255 0.179305 -0.076736
-1.70898 -0.9447535 0.115528 -0.01469608 -0.6738568 0.7387158 204 204 204 255 0.179305 0.00565614
-0.560086 -0.9497535 -0.0726577 0 -1 0 204 204 204 255 0.400331 -0.0767361
-0.560086 -0.9497535 0.120528 -0.002069148 -0.6899025 0.7238994 204 204 204 255 0.400331 0.00565753
0.588808 -0.9497535 -0.0726577 0 -1 0 204 204 204 255 0.621356 -0.0767362
0.588808 -0.9497535 0.120528 0.009036243 -0.7047369 0.7094112 204 204 204 255 0.621356 0.00565753
1.7377 -0.9497535 -0.0726577 0.0003515941 -0.9999985 0.00170927 204 204 204 255 0.842382 -0.0767363
1.7377 -0.9497535 0.0805283 -0.0002590587 -0.7166 0.6974843 204 204 204 255 0.842382 0.00565753
-1.70898 -0.5667886 0.0805283 -0.01396694 0.009157538 0.9998605 204 204 204 255 0.179305 0.206615
-0.560086 -0.5667886 0.105528 -0.005992103 0.0294019 0.9995497 204 204 204 255 0.400331 0.206616
0.588808 -0.5667886 0.105528 0.003362483 0.0371473 0.9993042 204 204 204 255 0.621356 0.206616
1.7377 -0.5667886 0.101591 0.006940653 0.01570216 0.9998527 204 204 204 255 0.842382 0.206616
-1.70898 -0.1838236 0.103506 -0.006887612 -0.02434388 0.9996799 204 204 204 255 0.179305 0.407574
-0.560086 -0.1838236 0.109251 -0.002238757 -0.02155165 0.9997652 204 204 204 255 0.400331 0.407574
0.588808 -0.1838236 0.0958469 0.01499158 -0.004841112 0.999876 204 204 204 255 0.621356 0.407574
1.7377 -0.1838236 0.0805283 0.002904678 0.03251842 0.9994669 204 204 204 255 0.842382 0.407574
-1.70898 0.1991435 0.103506 -0.001674133 0.002562976 0.9999954 204 204 204 255 0.179305 0.608532
-0.560086 0.1991435 0.109251 -0.002499877 0.05472118 0.9984986 204 204 204 255 0.400331 0.608532
0.588808 0.1991435 0.114995 0.008113191 0.01635604 0.9998333 204 204 204 255 0.621356 0.608532
1.7377 0.1991435 0.0690394 0.01271526 -0.0299284 0.9994712 204 204 204 255 0.842382 0.608532
-1.70898 0.5821034 0.118825 -0.001231755 0.03856585 0.9992553 204 204 204 255 0.179305 0.809491
-0.560086 0.5821034 0.072869 0.01689569 0.04861327 0.9986748 204 204 204 255 0.400331 0.809491
0.588808 0.5821034 0.0613801 -0.008361557 0.05039784 0.9986942 204 204 204 255 0.621356 0.80949
1.7377 0.5821034 0.0996766 -0.002283077 0.01329981 0.999909 204 204 204 255 0.842382 0.80949
-1.70898 -0.5667886 -0.10138 -0.002972772 -0.00875345 -0.9999573 204 204 204 255 1.97243 0.208208
-0.560086 -0.5667886 -0.0726577 -0.001332055 0.004311863 -0.9999898 204 204 204 255 1.75141 0.208208
0.588808 -0.5667886 -0.120528 -0.009672997 -0.03311209 -0.9994048 204 204 204 255 1.53038 0.208208
1.7377 -0.5667886 -0.0726577 0.0208197 0 -0.9997833 204 204 204 255 1.30936 0.208208
-1.70898 -0.1838236 -0.0822318 0.004568872 0.008414247 -0.9999542 204 204 204 255 1.97243 0.409167
-0.560086 -0.1838236 -0.0535094 -0.01387313 -0.008328064 -0.9998691 204 204 204 255 1.75141 0.409167
0.588808 -0.1838236 -0.120528 -0.00275744 0.008340589 -0.9999614 204 204 204 255 1.53038 0.409167
1.7377 -0.1838236 -0.0726577 0.01037042 -0.02080424 -0.9997298 204 204 204 255 1.30936 0.409167
-1.70898 0.1991435 -0.10138 -0.001806502 -0.02518161 -0.9996813 204 204 204 255 1.97243 0.610125
-0.560086 0.1991435 -0.0726577 -0.005534438 -0.008318232 -0.9999501 204 204 204 255 1.75141 0.610125
0.588808 0.1991435 -0.10138 -0.004177179 0.01251578 -0.999913 204 204 204 255 1.53038 0.610125
1.7377 0.1991435 -0.10138 0.005282304 -0.01244726 -0.9999086 204 204 204 255 1.30936 0.610125
-1.70898 0.5821034 -0.10138 0.003304411 0.03568505 -0.9993576 204 204 204 255 1.97243 0.811083
-0.560086 0.5821034 -0.0726577 -0.001382964 0.01538686 -0.9998807 204 204 204 255 1.75141 0.811083
0.588808 0.5821034 -0.0918059 -0.005530094 0.04622984 -0.9989156 204 204 204 255 1.53038 0.811083
1.7377 0.5821034 -0.0918059 0.01066995 0.03509203 -0.9993271 204 204 204 255 1.30936 0.811083
2.64533 -0.9497535 -0.0726577 0 -0.9999869 0.005127795 204 204 204 255 1.01699 -0.0767364
2.64533 -0.9487962 0.114038 0.05273092 -0.6909767 0.7209511 204 204 204 255 1.01699 0.00615989
2.64533 -0.5667886 0.101591 0.05539352 0.01508204 0.9983507 204 204 204 255 1.01699 0.206616
2.64533 -0.1838236 0.0805283 -0.07088313 0.02744556 0.997107 204 204 204 255 1.01699 0.407574
2.64533 0.1991435 0.0805283 -0.02792674 -1.388347e-07 0.99961 204 204 204 255 1.01699 0.608532
2.64533 0.5821034 0.0920173 0.04805569 0.002053196 0.9988426 204 204 204 255 1.01699 0.80949
2.64533 -0.5667886 -0.0726577 -0.001757566 -0.008331121 -0.9999638 204 204 204 255 1.13475 0.208208
2.64533 -0.1838236 -0.0822318 0.03948809 -0.0208357 -0.9990028 204 204 204 255 1.13475 0.409167
2.64533 0.1991435 -0.0822318 0.06973413 0.01248095 -0.9974875 204 204 204 255 1.13475 0.610125
2.64533 0.5821034 -0.0726577 0.02675183 0.008308627 -0.9996076 204 204 204 255 1.13475 0.811083
2.80618 -0.9487962 0.114038 0.148151 -0.8270428 0.5422653 204 204 204 255 1.04794 0.00615989
2.80618 -0.9497535 -0.0726577 -0.004797085 -0.9999821 0.003595883 204 204 204 255 1.04794 -0.0767364
2.72575 -0.9487962 0.114038 0 -0.6736128 0.7390844 204 204 204 255 1.03246 0.00615989
2.72575 -0.9497535 -0.0726577 0 -0.9999869 0.005127795 204 204 204 255 1.03246 -0.0767364
2.80618 -0.5667886 0.0805283 0.0890987 0.03355497 0.9954575 204 204 204 255 1.04794 0.206616
2.72575 -0.5667886 0.0805283 0.08515259 0.01971914 0.9961728 204 204 204 255 1.03246 0.206616
2.80618 -0.1838236 0.0920173 0.04058666 -0.01602381 0.9990476 204 204 204 255 1.04794 0.407574
2.72575 -0.1838236 0.0920173 -0.004943227 -0.0007788049 0.9999875 204 204 204 255 1.03246 0.407574
2.80618 0.1991435 0.0920173 0.07527792 0.01163956 0.9970946 204 204 204 255 1.04794 0.608532
2.72575 0.1991435 0.0920173 -0.0708891 0.01498269 0.9973717 204 204 204 255 1.03246 0.608532
2.80618 0.5821034 0.0805283 0.1741322 0.02174866 0.9844821 204 204 204 255 1.04794 0.80949
2.72575 0.5821034 0.0805283 0.02366981 0.01201781 0.9996476 204 204 204 255 1.03246 0.80949
2.80618 -0.5667886 -0.0726577 0 0 -1 204 204 204 255 1.1038 0.208208
2.72575 -0.5667886 -0.0726577 0.01972281 -0.004169598 -0.9997968 204 204 204 255 1.11928 0.208208
2.80618 -0.1838236 -0.0726577 0 0 -1 204 204 204 255 1.1038 0.409167
2.72575 -0.1838236 -0.0726577 0.0592121 0 -0.9982454 204 204 204 255 1.11928 0.409167
2.80618 0.1991435 -0.0726577 0 0 -1 204 204 204 255 1.1038 0.610125
2.72575 0.1991435 -0.0726577 0.03946262 0.004142856 -0.9992125 204 204 204 255 1.11928 0.610125
2.80618 0.5821034 -0.0726577 0 0 -1 204 204 204 255 1.1038 0.811083
2.72575 0.5821034 -0.0726577 0 0 -1 204 204 204 255 1.11928 0.811083
-2.71093 -0.9497535 -0.0726577 0.001663538 -0.9999595 0.008854102 204 204 204 255 -0.0134514 -0.0767359
-2.71093 -0.9497535 0.0805283 -0.007241629 -0.6965568 0.7174651 204 204 204 255 -0.0134513 0.0056575
-2.69129 -0.5667886 0.0805283 -0.002193346 -0.01852298 0.999826 204 204 204 255 -0.00967179 0.206616
-2.7273 -0.1838236 0.0901024 -0.06147185 -0.009762753 0.9980611 204 204 204 255 -0.0166009 0.407574
-2.70766 0.1991435 0.0901024 -0.09409885 0.003186083 0.9955578 204 204 204 255 -0.0128214 0.608532
-2.72403 0.5821034 0.0805283 -0.04050375 0.007392044 0.9991521 204 204 204 255 -0.015971 0.809491
-2.69129 -0.5667886 -0.0726577 -0.00973336 -0.01292388 -0.9998691 204 204 204 255 2.16141 0.208208
-2.7273 -0.1838236 -0.0726577 -0.008004867 0.007946708 -0.9999364 204 204 204 255 2.16834 0.409167
-2.70766 0.1991435 -0.0726577 -0.01114657 -0.008446051 -0.9999022 204 204 204 255 2.16456 0.610125
-2.72403 0.5821034 -0.0726577 -0.01420556 0.01762227 -0.9997438 204 204 204 255 2.16771 0.811083
-2.82421 -0.9497535 -0.0726577 0 -1 0 204 204 204 255 -0.0352445 -0.0767359
-2.82421 -0.9497535 0.0805283 0 -0.6 0.8 204 204 204 255 -0.0352444 0.00565753
-2.76757 -0.9497535 -0.0726577 0 -1 0 204 204 204 255 -0.024348 -0.0767359
-2.76757 -0.9497535 0.0805283 0 -0.7071068 0.7071068 204 204 204 255 -0.0243479 0.00565753
-2.80235 -0.5667886 0.0805283 0 0 1 204 204 204 255 -0.0310376 0.206616
-2.74682 -0.5667886 0.0805283 -0.0273911 -0.0068949 0.9996011 204 204 204 255 -0.0203547 0.206616
-2.84244 -0.1838236 0.0805283 0 0 1 204 204 204 255 -0.0387501 0.407574
-2.78487 -0.1838236 0.0805283 -0.08283456 0.0001972741 0.9965633 204 204 204 255 -0.0276755 0.407574
-2.82057 0.1991435 0.0805283 0 0 1 204 204 204 255 -0.0345433 0.608532
-2.76411 0.1991435 0.0805283 -0.05590933 0.00444098 0.998426 204 204 204 255 -0.0236824 0.608532
-2.83879 0.5821034 0.0805283 0 0 1 204 204 204 255 -0.038049 0.809491
-2.78141 0.5821034 0.0805283 0 0 1 204 204 204 255 -0.02701 0.809491
-2.80235 -0.5667886 -0.0726577 0 0 -1 204 204 204 255 2.18278 0.208208
-2.74682 -0.5667886 -0.0726577 0 0 -1 204 204 204 255 2.17209 0.208208
-2.84244 -0.1838236 -0.0726577 0 0 -1 204 204 204 255 2.19049 0.409167
-2.78487 -0.1838236 -0.0726577 0 0 -1 204 204 204 255 2.17941 0.409167
-2.82057 0.1991435 -0.0726577 0 0 -1 204 204 204 255 2.18628 0.610125
-2.76411 0.1991435 -0.0726577 0 0 -1 204 204 204 255 2.17542 0.610125
-2.83879 0.5821034 -0.0726577 0 0 -1 204 204 204 255 2.18979 0.811083
-2.78141 0.5821034 -0.0726577 0 0 -1 204 204 204 255 2.17875 0.811083
-0.560086 0.8670334 0.072869 0.006361718 -0.09401103 0.9955509 204 204 204 255 0.400331 0.959004
-1.70898 0.8492234 0.0805283 0.009481611 0.03203881 0.9994417 204 204 204 255 0.179305 0.949659
0.588808 0.9085035 0.072869 -0.004606818 -0.1155495 0.9932911 204 204 204 255 0.621356 0.980763
1.7377 0.8640634 0.0805283 -0.0003037422 0.02962899 0.999561 204 204 204 255 0.842382 0.957446
-1.70898 0.8492234 -0.0726577 -0.004488595 0.03567692 -0.9993533 204 204 204 255 1.97243 0.951251
-0.560086 0.8360334 -0.0726577 0.004373593 0.01783321 -0.9998314 204 204 204 255 1.75141 0.944329
0.588808 0.8660035 -0.0726577 -0.002753595 0.02244156 -0.9997444 204 204 204 255 1.53038 0.960054
1.7377 0.8640634 -0.0726577 0.0001411971 0.03382003 -0.999428 204 204 204 255 1.30936 0.959039
2.64533 0.8542435 0.0805283 0.02366422 0.01401163 0.9996218 204 204 204 255 1.01699 0.952291
2.64533 0.8542435 -0.0726577 0.003638822 0.01129645 -0.9999296 204 204 204 255 1.13475 0.953883
2.80618 0.7853534 0.0805283 0.260458 0.00314286 0.9654801 204 204 204 255 1.04794 0.916143
2.72575 0.8001334 0.0805283 0 0 1 204 204 204 255 1.03246 0.923899
2.80618 0.7853534 -0.0726577 0 0 -1 204 204 204 255 1.1038 0.917736
2.72575 0.8001334 -0.0726577 0 0 -1 204 204 204 255 1.11928 0.925492
-2.69865 0.8627334 0.0805283 -0.00596968 0.02425748 0.9996879 204 204 204 255 -0.0110891 0.956745
-2.69865 0.8627334 -0.0726577 0 0 -1 204 204 204 255 2.16283 0.958338
-2.81055 0.8322034 0.0805283 -0.1160006 0.2117418 0.9704171 204 204 204 255 -0.0326152 0.94073
-2.7546 0.8641635 0.0805283 -0.1312916 0.1509792 0.9797795 204 204 204 255 -0.0218521 0.957498
-2.81055 0.8322034 -0.0726577 0 0 -1 204 204 204 255 2.18435 0.942322
-2.7546 0.8641635 -0.0726577 0 0 -1 204 204 204 255 2.17359 0.95909
-2.8585 0.8749934 0.0319754 -0.7832412 0.6217088 -0.003382079 204 204 204 255 -0.04393 1.00915
-2.85342 0.8775734 0.0382178 -0.5437846 0.6769308 0.4960473 204 204 204 255 -0.0419591 0.999246
-2.85283 0.8821234 0.0295412 -0.6456161 0.7498779 0.1444406 204 204 204 255 -0.0417936 1.00912
2.88168 0.8282534 0.0390232 0.5258616 0.7919617 0.3102681 204 204 204 255 1.06807 0.94626
2.88189 0.8227034 0.0445761 0.67652 0.2123576 0.7051418 204 204 204 255 1.06837 0.936118
2.88682 0.8216534 0.0366788 0.7768145 0.6297275 -0.001575693 204 204 204 255 1.0707 0.946621
2.86075 -0.9497535 0.0749753 0.9466113 -0.06242461 0.3162755 204 204 204 255 1.05952 0.00571527
2.85602 -0.9496704 0.0834337 0.2832249 -0.8259737 0.4873921 204 204 204 255 1.05752 0.0057011
-2.88085 -0.9497535 0.0749753 -0.9224426 0.05532745 0.3821499 204 204 204 255 -0.0468865 0.00559979
-2.8753 -0.9497535 0.0805283 -0.4168013 -0.5650854 0.7120079 204 204 204 255 -0.045075 0.00565753
-2.85281 0.8821334 -0.0671047 -0.5570407 0.8304852 -3.266608e-05 204 204 204 255 -0.0408556 1.08844
-2.85342 0.8765535 -0.0726577 -0.4032457 0.1968613 -0.8936658 204 204 204 255 2.1926 0.965592
-2.85858 0.8743535 -0.0671047 -0.7478688 0.09620211 -0.656839 204 204 204 255 2.19449 0.96568
-2.88085 -0.9497535 -0.0671047 -0.9223564 0.05532727 -0.3823579 204 204 204 255 -0.0859026 0.00412252
-2.8753 -0.9497535 -0.0726577 -0.7066524 0.04240298 -0.7062892 204 204 204 255 -0.087389 0.00400705
2.86075 -0.9497535 -0.0671047 0.9220519 -0.06223832 -0.3820297 204 204 204 255 1.08725 0.00719254
2.8552 -0.9497535 -0.0726577 0.5051441 -0.03409713 -0.8623612 204 204 204 255 1.08991 0.00725028
2.88682 0.8216534 -0.0671047 0.7649408 0.6441005 0 204 204 204 255 1.06481 1.08568
2.88138 0.8228135 -0.0726577 0.2856504 0.401796 -0.8700367 204 204 204 255 1.08934 0.937498
2.88117 0.8283635 -0.0671047 0.6187334 0.7856002 -0.001102461 204 204 204 255 1.06272 1.08559
-2.85232 -0.5667886 0.0805283 -0.3820037 -0.02034802 0.9239367 204 204 204 255 -0.0406522 0.206616
-2.85788 -0.5667886 0.0749753 -0.9236823 0.003197608 0.3831459 204 204 204 255 -0.042622 0.206558
-2.85788 -0.5667886 -0.0671047 -0.9816892 -0.03095666 -0.1879574 204 204 204 255 -0.0857463 0.205081
-2.85232 -0.5667886 -0.0726577 -0.7063349 0.0423747 -0.7066084 204 204 204 255 -0.0875531 0.204965
-2.89445 -0.1838236 0.0805283 -0.3824978 0.001305845 0.9239555 204 204 204 255 -0.0487523 0.407574
-2.9 -0.1838236 0.0749753 -0.9225763 -0.0490726 0.3826811 204 204 204 255 -0.0504304 0.407516
-2.9 -0.1838236 -0.0671047 -0.7072915 0.002420804 -0.7069179 204 204 204 255 2.20263 0.409167
-2.89445 -0.1838236 -0.0726577 -0.3821425 -0.02034246 -0.9238795 204 204 204 255 2.2005 0.409167
-2.87147 0.1991435 0.0805283 -0.3826699 -0.005105532 0.923871 204 204 204 255 -0.044336 0.608532
-2.87702 0.1991435 0.0749753 -0.9236532 0.0215438 0.3826235 204 204 204 255 -0.0461765 0.608475
-2.87702 0.1991435 -0.0671047 -0.7072722 -0.009436185 -0.7068784 204 204 204 255 2.19821 0.610125
-2.87147 0.1991435 -0.0726577 -0.3826388 0.008926275 -0.9238549 204 204 204 255 2.19608 0.610125
-2.89062 0.5821034 0.0805283 -0.3333652 0.02303499 0.9425164 204 204 204 255 -0.0480178 0.809491
-2.89617 0.5821034 0.0749753 -0.9237581 0.008606737 0.3828797 204 204 204 255 -0.0497226 0.809433
-2.89617 0.5821034 -0.0671047 -0.7181962 0.04965745 -0.6940665 204 204 204 255 2.2019 0.811083
-2.89062 0.5821034 -0.0726577 -0.4574957 0.003952507 -0.8892031 204 204 204 255 2.19976 0.811083
2.88105 -0.5667886 -0.0726577 0.3826382 -0.01753275 -0.9237319 204 204 204 255 1.0894 0.208208
2.8866 -0.5667886 -0.0671047 0.922602 -0.0522689 -0.3821957 204 204 204 255 1.08743 0.208151
2.8866 -0.5667886 0.0749753 0.926908 -0.04262451 0.3728601 204 204 204 255 1.06431 0.206673
2.88105 -0.5667886 0.0805283 0.4411743 -0.0284935 0.896969 204 204 204 255 1.06234 0.206616
2.89445 -0.1838236 -0.0726577 0.3826232 0.01210957 -0.9238251 204 204 204 255 1.08682 0.409167
2.9 -0.1838236 -0.0671047 0.923885 -0.001560374 -0.382667 204 204 204 255 1.08504 0.409109
2.9 -0.1838236 0.0749753 0.9359308 0.02960998 0.350937 204 204 204 255 1.0667 0.407632
2.89449 -0.1838236 0.0812032 0.4627579 -1.102092e-05 0.8864847 204 204 204 255 1.06493 0.407574
2.86956 0.1991435 -0.0726577 0.382642 -0.005741786 -0.9238789 204 204 204 255 1.09161 0.610125
2.87511 0.1991435 -0.0671047 0.92361 0.02307633 -0.3826384 204 204 204 255 1.08948 0.610067
2.87511 0.1991435 0.0749753 0.9454856 0.00594744 0.3256098 204 204 204 255 1.06226 0.60859
2.86963 0.1991435 0.0814412 0.5250977 0.03932025 0.8501331 204 204 204 255 1.06014 0.608532
2.89062 0.5821034 -0.0726577 0.3286937 0.002508759 -0.9444333 204 204 204 255 1.08756 0.811083
2.89617 0.5821034 -0.0671047 0.923663 -0.02182497 -0.382584 204 204 204 255 1.0858 0.811028
2.89617 0.5821034 0.0366788 0.9585523 0.01686383 0.2844172 204 204 204 255 1.07291 0.809991
2.89106 0.5821034 0.0444061 0.6668523 0.02943322 0.7446085 204 204 204 255 1.07084 0.809911
-1.70898 0.9267734 0.0749753 0.004772866 0.9239789 0.3824136 204 204 204 255 0.179305 0.994177
-1.70898 0.9212235 0.0805283 -0.002571919 0.375578 0.9267873 204 204 204 255 0.179305 0.987439
-1.70898 0.9267734 -0.0671047 0.004506786 0.9701915 -0.2422978 204 204 204 255 0.179305 1.08933
-1.70898 0.9212235 -0.0726577 0.01255959 0.7075993 -0.7065024 204 204 204 255 0.179305 1.09677
-0.560086 0.9442235 0.0800163 0.003166318 0.3121123 0.95004 204 204 204 255 0.400331 0.999509
-0.560086 0.9497535 0.0749753 -0.002186239 0.9435257 0.3312922 204 204 204 255 0.400331 1.00558
-0.560086 0.9187534 -0.0671047 0.01461296 0.7072206 -0.7068419 204 204 204 255 1.75141 1.00702
-0.560086 0.9132034 -0.0726577 0.005290594 0.3827898 -0.9238203 204 204 204 255 1.75141 0.984822
0.588808 0.9244334 0.0786382 0.001283005 0.2031027 0.9791566 204 204 204 255 0.621356 0.997571
0.588808 0.9296535 0.0749753 0.008921443 0.9475405 0.3195115 204 204 204 255 0.621356 1.00416
0.588808 0.8871534 -0.0671047 -0.01762734 0.7071862 -0.7068076 204 204 204 255 1.53038 0.990443
0.588808 0.8816034 -0.0726577 0.0004950386 0.3827412 -0.9238555 204 204 204 255 1.53038 0.968243
1.7377 0.9403734 0.0805283 0.0009872871 0.332004 0.9432775 204 204 204 255 0.842382 0.997487
1.7377 0.9459234 0.0749753 -0.01127281 0.9305068 0.3661013 204 204 204 255 0.842382 1.00386
1.7377 0.9459234 -0.0671047 -0.0007309827 0.9523237 -0.3050886 204 204 204 255 0.842382 1.0897
1.7377 0.9403734 -0.0726577 0.009880712 0.7072616 -0.706883 204 204 204 255 0.842382 1.09641
2.64533 0.9276934 0.0805283 0.1561456 0.366067 0.9173949 204 204 204 255 1.01699 0.990835
2.64533 0.9332435 0.0749753 0.1877775 0.9055671 0.3803785 204 204 204 255 1.01699 0.99745
2.64533 0.9332435 -0.0671047 0.3601123 0.8580883 -0.366065 204 204 204 255 1.01699 1.08946
2.64533 0.9276934 -0.0726577 0.149459 0.6993517 -0.6989774 204 204 204 255 1.01699 1.09665
2.80618 0.8388035 -0.0726577 0.1376086 0.3720827 -0.9179425 204 204 204 255 1.1038 0.945785
2.80618 0.8443634 -0.0671047 0.2013181 0.6933532 -0.6919049 204 204 204 255 1.1038 0.951509
2.80618 0.8443634 0.0749753 0.3724075 0.8572829 0.3554977 204 204 204 255 1.04794 0.952205
2.80618 0.8388035 0.0805283 0.2941368 0.3575985 0.8863447 204 204 204 255 1.04794 0.944193
2.72575 0.8751134 -0.0726577 0.08117734 0.1798156 -0.9803452 204 204 204 255 1.11928 0.973984
2.72575 0.8806635 -0.0671047 0.3040166 0.6735176 -0.6737567 204 204 204 255 1.11928 0.979812
2.72575 0.8806635 0.0749753 0.4721417 0.809625 0.3486971 204 204 204 255 1.03246 0.962143
2.72575 0.8751134 0.0805283 0.1879446 0.3637241 0.9123495 204 204 204 255 1.03246 0.963244
-2.69129 0.9442034 0.0749753 -0.1132913 0.9374684 0.3291171 204 204 204 255 -0.00967179 1.00299
-2.69179 0.9386734 0.0805283 -0.1590145 0.4563905 0.8754553 204 204 204 255 -0.009768 0.996595
-2.69129 0.9442034 -0.0671047 0.02025458 0.9522026 -0.3047952 204 204 204 255 -0.00967179 1.08967
-2.69179 0.9386734 -0.0726577 0.01256979 0.7079504 -0.7061504 204 204 204 255 -0.00967179 1.09644
-2.80289 0.8999835 0.0429942 -0.4022387 0.657249 0.63736 204 204 204 255 -0.0311426 1.00416
-2.80235 0.9048135 0.034764 -0.47469 0.8540078 0.2129319 204 204 204 255 -0.0310376 1.01303
-2.80235 0.9048135 -0.0671047 -0.4249501 0.6640757 -0.6151592 204 204 204 255 2.18266 0.983424
-2.80297 0.8993034 -0.0726577 -0.2034389 0.374511 -0.9046293 204 204 204 255 2.1829 0.977528
-2.74729 0.9410834 0.0427558 -0.4066698 0.6110522 0.6791429 204 204 204 255 -0.0204455 1.0206
-2.74682 0.9460534 0.034764 -0.4530479 0.8612868 0.2300711 204 204 204 255 -0.0203547 1.0282
-2.74682 0.9460534 -0.0671047 -0.1482528 0.7076635 -0.6908209 204 204 204 255 2.17199 1.00507
-2.74734 0.9405234 -0.0726577 -0.174266 0.3725795 -0.911491 204 204 204 255 2.1722 0.99916
-2.86124 0.8146834 0.0805283 -0.4993261 0.3680522 0.7843539 204 204 204 255 -0.0435182 0.931533
-2.86649 0.8128634 0.0749753 -0.9219313 0.1837977 0.3409708 204 204 204 255 -0.0454497 0.930523
-2.86649 0.8128634 -0.0671047 -0.7417403 0.09485751 -0.6639452 204 204 204 255 2.19614 0.931214
-2.86124 0.8146834 -0.0726577 -0.3968268 0.050446 -0.9165063 204 204 204 255 2.19411 0.933125
2.88327 0.7729434 -0.0726577 0.387775 0.01490607 -0.9216335 204 204 204 255 1.08897 0.911222
2.88875 0.7720534 -0.0671047 0.9245096 0.03599619 -0.3794552 204 204 204 255 1.08706 0.910701
2.88875 0.7720534 0.0366788 0.9604886 0.03718702 0.275824 204 204 204 255 1.07108 0.909632
2.88377 0.7728634 0.0445436 0.6538948 0.02186083 0.7562696 204 204 204 255 1.06887 0.909971
-0.560086 -0.9497535 -0.0726577 0.008336485 -0.02494719 -0.9996541 204 204 204 255 1.75141 0.00725028
-1.70898 -0.9497535 -0.0726577 -0.00972206 -0.04988502 -0.9987077 204 204 204 255 1.97243 0.00725028
0.588808 -0.9497535 -0.0726577 -0.0137961 -0.08281191 -0.9964697 204 204 204 255 1.53038 0.00725028
1.7377 -0.9497535 -0.0726577 0.01390334 -0.04142375 -0.999045 204 204 204 255 1.30936 0.00725028
2.64533 -0.9497535 -0.0726577 0 0 -1 204 204 204 255 1.13475 0.00725028
2.80618 -0.9497535 -0.0726577 0 0 -1 204 204 204 255 1.1038 0.00725028
2.72575 -0.9497535 -0.0726577 0 0 -1 204 204 204 255 1.11928 0.00725028
-2.71093 -0.9497535 -0.0726577 0 0 -1 204 204 204 255 2.16519 0.00725028
-2.76757 -0.9497535 -0.0726577 0 0 -1 204 204 204 255 2.17609 0.00725028
-2.82421 -0.9497535 -0.0726577 0 0 -1 204 204 204 255 2.18698 0.00725028
-2.69129 0.9442034 -0.0671047 0.02356447 0.7073138 -0.7065068 204 204 204 255 2.16132 1.0041
-2.69179 0.9386734 -0.0726577 0.01016711 0.3052314 -0.952224 204 204 204 255 2.16151 0.998292
2.88117 0.8283635 -0.0671047 0.1498093 0.7021418 -0.6960992 204 204 204 255 1.08696 0.941888
-2.85858 0.8743535 -0.0671047 -0.793327 0.6087932 -0.001743634 204 204 204 255 -0.0428041 1.08847
-2.85281 0.8821334 -0.0671047 -0.31047 0.6896259 -0.6542359 204 204 204 255 2.19525 0.968021
-2.8585 0.8749934 0.0319754 -0.8851317 0.3766457 0.2732764 204 204 204 255 -0.044358 0.99626
1.7377 0.9459234 -0.0671047 -0.03615707 0.7068336 -0.7064553 204 204 204 255 1.30936 1.00501
1.7377 0.9403734 -0.0726577 -0.01560385 0.3050393 -0.952212 204 204 204 255 1.30936 0.999185
2.88682 0.8216534 0.0366788 0.923851 0.1856359 0.3347217 204 204 204 255 1.0706 0.935649
-2.85788 -0.5667886 -0.0671047 -0.7048419 -0.07753047 -0.7051148 204 204 204 255 2.19453 0.208208
-2.85232 -0.5667886 -0.0726577 -0.1867474 -0.02054409 -0.9821931 204 204 204 255 2.19239 0.208208
-1.70898 0.9267734 -0.0671047 0.004937327 0.7072912 -0.706905 204 204 204 255 1.97243 0.994964
-1.70898 0.9212235 -0.0726577 0.001308341 0.1874236 -0.9822783 204 204 204 255 1.97243 0.989137
2.72575 0.8751134 -0.0726577 0.4197344 0.641975 -0.6416316 204 204 204 255 1.03246 1.06741
2.72575 0.8806635 -0.0671047 0.4697202 0.866605 -0.1684006 204 204 204 255 1.03246 1.05757
2.88682 0.8216534 -0.0671047 0.9255468 0.035818 -0.3769354 204 204 204 255 1.08739 0.936727
-2.85281 0.8821334 -0.0671047 -0.7154141 0.5306054 -0.4545773 204 204 204 255 -0.0407363 1.09443
-2.85342 0.8765535 -0.0726577 -0.7154141 0.5306054 -0.4545773 204 204 204 255 -0.0409004 1.09242
-2.85858 0.8743535 -0.0671047 -0.7154141 0.5306054 -0.4545773 204 204 204 255 -0.0428114 1.09153
2.88682 0.8216534 -0.0671047 0.651632 0.5486915 -0.5237493 204 204 204 255 1.06463 1.09156
2.88138 0.8228135 -0.0726577 0.651632 0.5486915 -0.5237493 204 204 204 255 1.06235 1.09213
2.88117 0.8283635 -0.0671047 0.651632 0.5486915 -0.5237493 204 204 204 255 1.06233 1.09439
-2.9 -0.1838236 -0.0671047 -0.9999939 0.003501602 0 204 204 204 255 -0.0860358 0.406039
-2.87702 0.1991435 -0.0671047 -0.999911 -0.01334716 0 204 204 204 255 -0.0858759 0.606997
-2.89617 0.5821034 -0.0671047 -0.9976416 0.06863862 0 204 204 204 255 -0.0860092 0.807956
-0.560086 0.9187534 -0.0671047 0.01676201 0.9711804 -0.2377558 204 204 204 255 0.400331 1.08977
0.588808 0.8871534 -0.0671047 -0.01289746 0.9811311 -0.1929131 204 204 204 255 0.621356 1.08917
2.80618 0.8443634 -0.0671047 0.2776447 0.9606838 3.771995e-06 204 204 204 255 1.04794 1.08777
2.8552 -0.9497535 -0.0726577 -0.0002677128 -0.9999998 0.0005337214 204 204 204 255 1.05737 -0.0767364
2.86075 -0.9497535 -0.0671047 -0.00904999 -0.9999591 0.0002675735 204 204 204 255 1.05843 -0.0737459
2.86075 -0.9497535 0.0749753 -0.0175639 -0.9998457 0 204 204 204 255 1.05843 0.00277189
-2.80235 0.9048135 -0.0671047 -0.5369244 0.8436304 0 204 204 204 255 -0.0310376 1.08892
-2.74682 0.9460534 -0.0671047 -0.1857477 0.9825975 0 204 204 204 255 -0.0203547 1.0897
-2.8753 -0.9497535 -0.0726577 0 -1 0 204 204 204 255 -0.0450728 -0.0767359
-2.88085 -0.9497535 0.0749753 0 -1 0 204 204 204 255 -0.046141 0.00277191
-2.88085 -0.9497535 -0.0671047 0 -1 0 204 204 204 255 -0.0461411 -0.0737453
-2.8753 -0.9497535 -0.0726577 0 0 -1 204 204 204 255 2.19681 0.00725028
-2.86649 0.8128634 -0.0671047 -0.99183 0.1275669 -7.363938e-06 204 204 204 255 -0.0858485 0.929046
-2.85858 0.8743535 -0.0671047 -0.9918278 0.1275838 -2.209182e-05 204 204 204 255 -0.0854158 0.963306
2.64533 0.9276934 -0.0726577 0 0 -1 204 204 204 255 1.13475 0.992428
3 0 2 3 
3 0 3 1 
3 2 4 5 
3 2 5 3 
3 4 6 7 
3 4 7 5 
3 1 3 9 
3 1 9 8 
3 3 5 10 
3 3 10 9 
3 5 7 11 
3 5 11 10 
3 8 9 13 
3 8 13 12 
3 9 10 14 
3 9 14 13 
3 10 11 15 
3 10 15 14 
3 12 13 17 
3 12 17 16 
3 13 14 18 
3 13 18 17 
3 14 15 19 
3 14 19 18 
3 16 17 21 
3 16 21 20 
3 17 18 22 
3 17 22 21 
3 18 19 23 
3 18 23 22 
3 24 25 220 
3 24 220 221 
3 25 26 222 
3 25 222 220 
3 26 27 223 
3 26 223 222 
3 28 29 25 
3 28 25 24 
3 29 30 26 
3 29 26 25 
3 30 31 27 
3 30 27 26 
3 32 33 29 
3 32 29 28 
3 33 34 30 
3 33 30 29 
3 34 35 31 
3 34 31 30 
3 36 37 33 
3 36 33 32 
3 37 38 34 
3 37 34 33 
3 38 39 35 
3 38 35 34 
3 6 40 41 
3 6 41 7 
3 7 41 42 
3 7 42 11 
3 11 42 43 
3 11 43 15 
3 15 43 44 
3 15 44 19 
3 19 44 45 
3 19 45 23 
3 27 46 224 
3 27 224 223 
3 31 47 46 
3 31 46 27 
3 35 48 47 
3 35 47 31 
3 39 49 48 
3 39 48 35 
3 50 52 53 
3 50 53 51 
3 52 41 40 
3 52 40 53 
3 54 55 52 
3 54 52 50 
3 55 42 41 
3 55 41 52 
3 56 57 55 
3 56 55 54 
3 57 43 42 
3 57 42 55 
3 58 59 57 
3 58 57 56 
3 59 44 43 
3 59 43 57 
3 60 61 59 
3 60 59 58 
3 61 45 44 
3 61 44 59 
3 225 226 63 
3 225 63 62 
3 226 224 46 
3 226 46 63 
3 62 63 65 
3 62 65 64 
3 63 46 47 
3 63 47 65 
3 64 65 67 
3 64 67 66 
3 65 47 48 
3 65 48 67 
3 66 67 69 
3 66 69 68 
3 67 48 49 
3 67 49 69 
3 70 0 1 
3 70 1 71 
3 71 1 8 
3 71 8 72 
3 72 8 12 
3 72 12 73 
3 73 12 16 
3 73 16 74 
3 74 16 20 
3 74 20 75 
3 76 24 221 
3 76 221 227 
3 77 28 24 
3 77 24 76 
3 78 32 28 
3 78 28 77 
3 79 36 32 
3 79 32 78 
3 80 82 83 
3 80 83 81 
3 82 70 71 
3 82 71 83 
3 81 83 85 
3 81 85 84 
3 83 71 72 
3 83 72 85 
3 84 85 87 
3 84 87 86 
3 85 72 73 
3 85 73 87 
3 86 87 89 
3 86 89 88 
3 87 73 74 
3 87 74 89 
3 88 89 91 
3 88 91 90 
3 89 74 75 
3 89 75 91 
3 92 93 228 
3 92 228 229 
3 93 76 227 
3 93 227 228 
3 94 95 93 
3 94 93 92 
3 95 77 76 
3 95 76 93 
3 96 97 95 
3 96 95 94 
3 97 78 77 
3 97 77 95 
3 98 99 97 
3 98 97 96 
3 99 79 78 
3 99 78 97 
3 21 100 101 
3 21 101 20 
3 22 102 100 
3 22 100 21 
3 23 103 102 
3 23 102 22 
3 36 104 105 
3 36 105 37 
3 37 105 106 
3 37 106 38 
3 38 106 107 
3 38 107 39 
3 45 108 103 
3 45 103 23 
3 39 107 109 
3 39 109 49 
3 60 110 111 
3 60 111 61 
3 61 111 108 
3 61 108 45 
3 69 113 112 
3 69 112 68 
3 49 109 113 
3 49 113 69 
3 20 101 114 
3 20 114 75 
3 79 115 104 
3 79 104 36 
3 91 117 116 
3 91 116 90 
3 75 114 117 
3 75 117 91 
3 98 118 119 
3 98 119 99 
3 99 119 115 
3 99 115 79 
3 125 137 139 
3 125 139 123 
3 191 187 186 
3 191 186 190 
3 181 177 176 
3 181 176 180 
3 129 140 141 
3 129 141 128 
3 175 203 202 
3 175 202 174 
3 210 230 231 
3 210 231 211 
3 200 209 208 
3 200 208 201 
3 178 182 183 
3 178 183 179 
3 185 181 180 
3 185 180 184 
3 161 157 156 
3 161 156 160 
3 158 162 163 
3 158 163 159 
3 194 198 199 
3 194 199 195 
3 184 188 189 
3 184 189 185 
3 159 127 126 
3 159 126 158 
3 150 154 155 
3 150 155 151 
3 206 210 211 
3 206 211 207 
3 214 132 131 
3 214 131 215 
3 177 172 173 
3 177 173 176 
3 193 232 138 
3 193 138 192 
3 197 193 192 
3 197 192 196 
3 153 149 148 
3 153 148 152 
3 143 134 133 
3 143 133 142 
3 205 122 121 
3 205 121 204 
3 136 156 157 
3 136 157 135 
3 217 169 168 
3 217 168 216 
3 162 166 167 
3 162 167 163 
3 233 120 122 
3 233 122 130 
3 234 206 207 
3 234 207 131 
3 212 121 235 
3 212 235 213 
3 145 141 140 
3 145 140 144 
3 146 150 151 
3 146 151 147 
3 201 173 172 
3 201 172 200 
3 165 161 160 
3 165 160 164 
3 182 236 237 
3 182 237 183 
3 149 145 144 
3 149 144 148 
3 219 171 170 
3 219 170 218 
3 154 214 215 
3 154 215 155 
3 213 153 152 
3 213 152 212 
3 218 238 124 
3 218 124 219 
3 239 146 147 
3 239 147 240 
3 169 165 164 
3 169 164 168 
3 209 205 204 
3 209 204 208 
3 241 178 179 
3 241 179 242 
3 243 191 190 
3 243 190 244 
3 188 199 198 
3 188 198 189 
3 166 170 171 
3 166 171 167 
3 216 138 245 
3 216 245 217 
3 123 194 195 
3 123 195 124 
3 235 121 122 
3 123 124 238 
3 246 247 248 
3 249 250 251 
3 141 142 133 
3 141 133 128 
3 145 252 142 
3 145 142 141 
3 149 253 252 
3 149 252 145 
3 153 254 253 
3 153 253 149 
3 157 158 126 
3 157 126 135 
3 161 162 158 
3 161 158 157 
3 165 166 162 
3 165 162 161 
3 169 170 166 
3 169 166 165 
3 177 255 174 
3 177 174 172 
3 181 256 255 
3 181 255 177 
3 185 186 256 
3 185 256 181 
3 189 190 186 
3 189 186 185 
3 257 194 123 
3 257 123 139 
3 244 198 194 
3 244 194 257 
3 190 189 198 
3 190 198 244 
3 127 50 51 
3 127 51 258 
3 127 258 259 
3 127 259 260 
3 54 50 127 
3 54 127 159 
3 56 54 159 
3 56 159 163 
3 58 56 163 
3 58 163 167 
3 60 58 167 
3 60 167 171 
3 225 62 156 
3 225 156 136 
3 62 64 160 
3 62 160 156 
3 64 66 164 
3 64 164 160 
3 66 68 168 
3 66 168 164 
3 172 174 202 
3 172 202 200 
3 205 261 130 
3 205 130 122 
3 209 262 261 
3 209 261 205 
3 200 202 262 
3 200 262 209 
3 263 80 81 
3 263 81 129 
3 263 129 264 
3 263 264 265 
3 81 84 140 
3 81 140 129 
3 84 86 144 
3 84 144 140 
3 86 88 148 
3 86 148 144 
3 88 90 152 
3 88 152 148 
3 92 229 266 
3 92 266 240 
3 94 92 240 
3 94 240 147 
3 96 94 147 
3 96 147 151 
3 98 96 151 
3 98 151 155 
3 213 267 254 
3 213 254 153 
3 235 268 267 
3 235 267 213 
3 217 218 170 
3 217 170 169 
3 245 238 218 
3 245 218 217 
3 176 173 101 
3 176 101 100 
3 180 176 100 
3 180 100 102 
3 184 180 102 
3 184 102 103 
3 242 179 105 
3 242 105 104 
3 179 183 106 
3 179 106 105 
3 183 237 107 
3 183 107 106 
3 188 184 103 
3 188 103 108 
3 237 269 109 
3 237 109 107 
3 219 110 60 
3 219 60 171 
3 124 195 110 
3 124 110 219 
3 195 199 111 
3 195 111 110 
3 199 188 108 
3 199 108 111 
3 112 216 168 
3 112 168 68 
3 192 138 216 
3 192 216 112 
3 196 192 112 
3 196 112 113 
3 269 196 113 
3 269 113 109 
3 173 201 114 
3 173 114 101 
3 231 242 104 
3 231 104 115 
3 116 212 152 
3 116 152 90 
3 204 121 212 
3 204 212 116 
3 208 204 116 
3 208 116 117 
3 201 208 117 
3 201 117 114 
3 215 118 98 
3 215 98 155 
3 131 207 118 
3 131 118 215 
3 207 211 119 
3 207 119 118 
3 211 231 115 
3 211 115 119 
